<?xml version="1.0" standalone="no"?>
<!DOCTYPE svg PUBLIC "-//W3C//DTD SVG 20010904//EN"
 "http://www.w3.org/TR/2001/REC-SVG-20010904/DTD/svg10.dtd">
<svg version="1.0" xmlns="http://www.w3.org/2000/svg"
 width="63.000000pt" height="96.000000pt" viewBox="0 0 63.000000 96.000000"
 preserveAspectRatio="xMidYMid meet">

<g transform="translate(0.000000,96.000000) scale(0.100000,-0.100000)"
fill="#000000" stroke="none">
<path d="M235 956 c-5 -3 -36 -12 -67 -21 -99 -27 -158 -95 -158 -180 l0 -46
71 3 71 3 12 34 c17 51 55 74 130 79 121 8 176 -31 176 -122 0 -89 -24 -106
-248 -180 -62 -21 -126 -49 -143 -63 -65 -55 -93 -171 -70 -284 15 -70 60
-119 140 -151 78 -31 241 -32 321 -3 68 25 124 78 139 130 14 53 15 596 0 648
-14 51 -75 110 -135 131 -45 16 -216 31 -239 22z m235 -608 c0 -133 -7 -158
-53 -192 -41 -30 -173 -30 -214 0 -66 49 -66 158 0 207 18 13 75 39 127 56 52
18 102 37 110 42 8 4 18 9 23 9 4 0 7 -55 7 -122z"/>
</g>
</svg>
